<?xml version="1.0" encoding="utf-8"?>
<!-- Generator: Adobe Illustrator 23.0.4, SVG Export Plug-In . SVG Version: 6.00 Build 0)  -->
<svg version="1.1" id="Layer_1" xmlns="http://www.w3.org/2000/svg" xmlns:xlink="http://www.w3.org/1999/xlink" x="0px" y="0px"
	 viewBox="0 0 1024 1024" style="enable-background:new 0 0 1024 1024;" xml:space="preserve">
<style type="text/css">
	.st0{fill:#FFFFFF;}
	.st1{clip-path:url(#SVGID_2_);}
</style>
<g transform="translate(0.000000,1024.000000) scale(0.100000,-0.100000)">
	<path d="M4720,9174c-19-2-80-9-135-14c-782-82-1552-413-2180-939c-116-96-380-360-476-476c-520-621-824-1318-936-2143
		c-25-183-25-801,0-984c112-825,416-1522,936-2143c96-116,360-380,476-476c621-520,1318-824,2143-936c183-25,801-25,984,0
		c825,112,1522,416,2143,936c116,96,380,360,476,476c520,621,824,1318,936,2143c25,183,25,801,0,984c-112,825-416,1522-936,2143
		c-96,116-360,380-476,476c-619,518-1323,826-2137,935c-88,12-216,17-453,19C4904,9177,4739,9176,4720,9174z M4770,8742
		c0-117,8-371,19-612c6-118,13-287,16-375c11-312,44-1131,49-1204l5-73l-45,5c-25,2-48,8-52,11c-3,4-10,73-14,154
		c-18,356-77,1737-83,1939l-6,222l28,4c15,2,40,5,56,6l27,1V8742z M5727,8766c1-1,4-303,7-671c4-369,9-700,12-736c3-37,2-69-3-71
		c-4-3-29-3-54,0l-46,4l-7,291c-4,161-9,339-11,397c-8,177-15,778-9,793c4,11,15,12,57,5C5702,8772,5726,8767,5727,8766z M3414,8431
		c6-9,53-560,111-1281c19-245,38-469,41-497c5-51,4-53-28-73c-18-11-36-20-40-20c-3,0-9,26-12,58c-14,130-68,758-106,1212
		c-22,267-42,506-45,532c-5,44-4,48,22,62C3389,8441,3407,8444,3414,8431z M6167,8230c28-10,31-15,37-72c10-100,7-578-4-578
		c-29,0-89,34-94,53c-3,12-6,154-6,315C6100,8273,6096,8254,6167,8230z M4320,8183c0-27,7-176,15-333s17-356,21-442
		c7-174,9-168-58-172c-33-1-33-1-35,49c-2,28-7,115-13,195c-5,80-17,253-25,385s-18,263-21,291c-6,50-5,52,22,62c16,6,44,11,62,11
		C4320,8230,4320,8230,4320,8183z M7094,8046l34-14l7-134c3-73,5-231,3-350l-3-218l-42,21l-42,20l-3,332c-2,183-1,338,1,345
		C7053,8063,7053,8063,7094,8046z M5268,7915c6-6,20-491,21-737l1-148l-47,7c-27,3-49,6-50,7c-3,2-33,743-33,815v74l51-6
		C5240,7923,5265,7918,5268,7915z M7571,7844c12-14,14-233,17-1441c3-1387,3-1423-15-1423c-11,0-26,6-35,13c-15,11-17,132-22,1317
		c-4,718-9,1370-12,1449l-6,144l29-21C7544,7870,7563,7853,7571,7844z M6674,7639c5-4,10-61,11-126c5-221,6-1576,1-1580
		c-2-2-20,3-40,11l-36,15v851v850l28-6C6653,7650,6669,7644,6674,7639z M3914,7583c3-27,8-88,11-138c3-49,10-161,16-248
		c12-176,10-187-47-187c-30,0-34,3-38,33c-10,59-45,551-40,559c5,7,57,25,81,27C3903,7630,3911,7609,3914,7583z M2260,7328
		c11-106,33-328,49-493c17-165,31-305,31-311c0-12-77-50-85-42c-5,5-105,890-105,930c0,24,77,125,87,114
		C2240,7524,2250,7435,2260,7328z M6181,7223l29-17l1-216c1-118,3-250,3-293c2-90-9-105-63-86l-31,11v86c0,48-3,187-7,310l-6,222h23
		C6142,7240,6165,7232,6181,7223z M2699,6835c18-192,47-516,66-720l34-370l-39-39l-38-39l-7,79c-4,44-24,248-45,454s-51,505-66,664
		l-28,288l39,36c35,33,39,34,46,16C2665,7194,2682,7028,2699,6835z M1950,6714c22-197,80-721,130-1164s97-870,106-950
		c8-80,22-201,30-270c14-117,14-125-2-137c-24-18-34-16-34,5c0,9-9,85-20,167c-18,137-48,369-115,890c-14,105-41,314-60,465
		c-20,151-49,376-65,500s-43,336-60,473c-18,136-29,257-26,270c7,27,66,121,72,115C1908,7075,1928,6912,1950,6714z M1644,6283
		c15-120,43-339,62-488c19-148,43-333,54-410l19-140l-21-18c-12-10-24-14-28-10s-12,44-18,88s-43,301-83,570l-71,490l23,68
		c12,37,25,67,28,67C1613,6500,1628,6402,1644,6283z M7134,6414c14-14,16-76,16-535v-519h-28c-61,0-60-15-64,553l-3,517h32
		C7104,6430,7126,6423,7134,6414z M4945,6235c226-34,423-97,618-197c126-65,186-110,326-244c208-199,336-373,456-619
		c175-358,243-675,329-1525c39-381,90-1072,101-1355c3-82,10-217,16-300c11-176,24-152-131-227c-215-104-422-176-695-243
		c-334-82-550-108-880-109l-240-1l2,115c0,63,6,210,12,325c30,557,24,1260-15,1650c-22,224-65,496-89,556c-5,13,18,24,117,58
		c181,63,338,142,362,181c43,74-34,180-132,180c-17,0-68-18-115-39c-224-103-673-224-932-251c-179-19-457-8-650,27
		c-105,19-293,90-450,171c-181,94-292,219-325,367c-18,80-13,240,10,330c25,99,95,243,159,327c285,375,873,700,1476,814
		C4467,6262,4739,6266,4945,6235z M8030,6204c36-15,40-19,40-53c2-273-4-897-9-923c-1-9-53-10-75-2c-14,5-16,59-16,500
		c0,316,4,494,10,494C7985,6220,8008,6213,8030,6204z M8467,5655l36-15l-7-828c-8-1055-9-1086-47-1177c-62-149-59-179-53,475
		c2,327,7,658,9,735s4,294,5,483c0,228,3,342,10,342C8426,5670,8447,5663,8467,5655z M2453,5406c6-81,4-89-25-153l-32-68l-12,100
		c-19,160-19,167,19,191c17,12,35,20,38,18S2450,5452,2453,5406z M1835,4803c9-82,79-626,115-893c54-413,58-472,34-447
		c-3,3-26,142-50,309c-156,1078-155,1071-142,1079C1819,4869,1828,4859,1835,4803z M2555,4345c6-25,35-296,35-329c0-28-36-54-52-38
		c-5,5-18,90-28,188c-11,99-22,202-25,229l-6,50l35-40C2534,4383,2552,4356,2555,4345z M3362,3968c11-10,18-50,27-158
		c15-195,17-180-24-180c-42,0-41-3-55,173c-14,179-14,177,13,177C3336,3980,3353,3974,3362,3968z M4154,3953c2-10,7-70,11-133
		c3-63,12-205,20-315c28-404,29-455,12-455c-19,0-21,15-43,300c-8,118-23,304-33,413c-9,109-15,200-12,202
		C4120,3977,4149,3968,4154,3953z M2274,3761c6-9,44-329,91-766c14-132,28-259,31-283l5-43l-25,16c-19,13-26,26-26,49
		c0,63-43,478-76,732c-19,144-34,271-34,283C2240,3770,2264,3778,2274,3761z M8045,3343l-7-418l-25-37c-57-84-54-100-51,368l2,429
		l37,38c20,20,40,37,44,37C8048,3760,8048,3572,8045,3343z M7120,2680c5-581,4-626-12-644c-10-11-19-18-22-15c-7,8-17,1275-9,1282
		c4,4,14,6,23,5C7113,3305,7116,3234,7120,2680z M3854,3078c7-62,32-359,42-499c6-94,6-97-16-104c-12-4-26-3-30,2
		c-7,7-29,229-56,571l-7,82h31C3847,3130,3849,3128,3854,3078z M3068,2728c7-7,12-32,12-57c0-26,12-161,25-301c38-383,41-435,24-425
		c-26,15-49,38-44,44c2,4-2,54-10,111c-7,58-16,152-20,210s-13,164-21,235c-19,175-18,195,4,195C3048,2740,3061,2735,3068,2728z
		 M3541,2055c3-22,9-104,13-182c7-150,4-161-37-130c-12,9-20,47-32,161c-21,206-22,198,17,194C3531,2095,3535,2091,3541,2055z"/>
	<path d="M3184,5756c-104-45-112-186-14-236c71-36,143-19,180,43C3420,5677,3306,5809,3184,5756z"/>
	<path d="M3862,5660c-96-59-96-201,0-260c95-57,218,18,218,132C4080,5642,3954,5716,3862,5660z"/>
</g>
<g>
	<g transform="translate(0.000000,476.000000) scale(0.100000,-0.100000)">
		<g>
			<path class="st0" d="M5900.8,1059.4c-77.1,0-279.2,16.9-450.5,37.6c-154.2,18.8-431.3,68.3-593,106
				c-65.5,15.3-146.5,35.8-216.9,54.7c-130.4,35.1-137.1,40.1-154.9,53.8c-26.4,20.5-42.6,50.6-45.2,83.1
				c-4.8,60.7,19.3,86.4,153.3,229.4l11.9,12.7c36.3,38.6,68.8,73.2,86,93.7c-16.9,50.4-19.4,80.1-10.9,130.4l0.2,1.1
				c18.6,104.5,68.1,144.7,169.4,218.9c49.7,36.4,95.5,75.5,111.1,92.3c5.2,5.6,41,47.6,205.3,288.6
				c70.7,104.2,184,268.8,210.6,301.3c92.1,113.6,216.6,213.5,341.7,274.2c106.6,52.3,238.5,88.1,371.2,100.8
				c12.5,1.1,24.1,1.7,35.1,1.7c117.3,0,179.5-60.3,211.1-110.9c18.1-28.5,30.9-67.9,32.2-99.6l0.1-2.7
				c1.9-124-113.8-288-149.3-335.3c-115.4-154.3-115.4-154.3-123.2-220.8c-5.4-46.6-5.5-60.4,23.7-171.8
				c42.8-162.9,55.3-265.4,47.8-391.5c-8.9-146.3-61.4-321-140.6-467.5c-13.4-25-15.2-28.2-1.9-74.2c3.8-13.5,8.7-32.2,12.2-49.6
				c16.2-81.3-22.3-120.2-50.7-137.3C5955.7,1059.4,5923.1,1059.4,5900.8,1059.4z"/>
			<path d="M6125.2,3026c53.9,0,90.5-18.5,114.8-57.5c8.2-12.9,14.7-33.1,15.1-44.2c0.9-56.8-49.9-163.3-126.6-265.5
				c-126.7-169.5-134.3-183.8-145.1-275.7c-7.7-66.4-4.4-95.2,26.6-213.7c39.9-151.8,51-243.8,44.3-356
				c-7.9-129.9-56.7-289.9-127.2-420.3c-29.4-54.6-32-87.1-11.1-159.4c8.7-30.9,14.1-57.3,11.6-58.6c-2.1-1.6-11.5-2.3-26.7-2.3
				c-70.3,0-264.6,15.9-436.9,36.8c-150.1,18.3-421.2,66.6-580.9,103.8c-139.1,32.6-319.9,81.4-328.6,88.1
				c-6.7,5.2,17.1,33,122,144.9c147.8,157.3,145.1,152,123.3,218.1c-11.6,34.3-12.6,45.5-7.2,77.5c10.1,56.7,25.2,74.4,124.7,147.3
				c51.4,37.6,103.8,81.5,127.1,106.4c25.4,27.5,101.8,134.4,216,302c96.8,142.7,188.9,274.7,204.8,293.4
				c81.6,100.8,194.5,191.1,303.4,243.9c95.8,47,213.8,78.6,332.5,89.9C6109.4,3025.6,6117.5,3026,6125.2,3026 M6125.2,3252.8
				c-14.4,0-29.3-0.7-44.4-2l-0.7-0.1l-0.7-0.1c-145.8-13.9-291.6-53.6-410.5-111.9c-139.4-67.8-277.9-178.9-380-304.9l0,0
				c-40.1-49.7-186-264.3-216.1-308.6c-149.2-218.8-188.8-268-195.4-276c-10.2-10.4-47.3-42.7-94.2-77
				c-116.1-85.1-188.5-147.1-214-290.6l-0.2-1.1l-0.2-1.1c-7.4-44.1-8.4-80.1-2-118.4c-13.2-14.3-28.4-30.4-43.9-46.8l-11.8-12.6
				c-55-58.6-84-90.3-103.9-113.3c-30.7-35.6-87.9-101.7-79.9-202.7c5.1-64.3,37.2-123.8,88.1-163.3l0.6-0.5l0.6-0.5
				c38.6-29.5,69.1-39.5,194.3-73.2c71.5-19.2,153.9-40,220.3-55.6c168.1-39.2,445.1-88.7,605.2-108.1
				c178.2-21.6,382.1-38.4,464.3-38.4c32.4,0,99.7,0,163.5,48.2l0,0c62.5,47.4,97,125.1,89.5,206.9c-1,11.2-2.8,23.1-5.5,36.5
				c-4.2,20.9-9.9,42.6-14,57.2l-0.2,0.8l-0.2,0.8c-0.2,0.6-0.3,1.1-0.5,1.6c82.7,157.5,137.6,344,147.2,501.6
				c8.2,137.9-5.7,253.7-51.4,427.4c-24.7,94.5-24.2,99.2-20.6,130.1c2,17.2,3.2,24.8,3.9,28.1c9.7,20.3,62.4,90.8,97.5,137.8
				c65,86.6,174.1,254.8,171.7,404.8l0,2.7l-0.1,2.7c-2,51.4-20.6,109.6-49.7,155.8C6366,3194.7,6257.1,3252.8,6125.2,3252.8
				L6125.2,3252.8z"/>
		</g>
		<g>
			<path class="st0" d="M5587.9,597.3c-122.6,0-254.7,10.5-403.6,32c-262.3,38.1-518.1,105.5-782.1,206.3
				c-109.7,42.2-183.6,78.5-214.3,194.3c-16.6,61.2-8,125.2,23.8,175.5c5.4,8.8,20.2,30.3,98.9,115.5
				c83.2,90.4,109.6,116.6,163.7,116.6h9.5l9.4-1.6c7.4-1.2,18.6-3.1,63.6-21.7c101.1-41.7,529.6-137.6,846.1-182.5
				c183.1-25.7,402.7-45.9,499.8-45.9c11,0,17.6,0.3,21.3,0.5l1,0.1c5.7,0.3,10.6,0.5,14.9,0.5c71.9,0,111.7-46.1,124.9-89.3l0,0
				c13.1-45.4,36.6-237.1,28.9-282.9l-0.2-1.1c-19.3-108.7-106.1-183.1-232.1-199C5769.3,603,5679.8,597.3,5587.9,597.3z"/>
			<path d="M4474.3,1324.1C4474.3,1324.1,4474.4,1324.1,4474.3,1324.1c2.8-0.5,20.3-6.9,39.2-14.7c120.6-49.7,564-146.1,873.5-189.9
				c190.3-26.7,414.9-47,515.7-47c11.1,0,20.7,0.2,28.6,0.8c3.3,0.2,6.1,0.3,8.6,0.3c11,0,14.4-2.1,16.5-9.1
				c9.4-27,29.1-208.9,25.4-230.9c-10.5-58.9-57.8-96.7-134.6-106.3c-86.4-11-171.3-16.5-259.4-16.5c-119.5,0-244.8,10.2-387.4,30.8
				c-256.8,37.3-500.9,101.9-757.9,200c-106.4,41-129.9,59.9-145.1,117.4c-8.6,31.5-5.1,62.7,10.5,86.7c5.6,9.5,44.2,53.3,85.9,98.3
				C4434.6,1288.3,4471.1,1324.1,4474.3,1324.1 M4474.3,1550.9c-95.9,0-152.2-55.9-185.9-89.3c-18.2-18.1-39.9-40.7-61.2-63.9
				c-87-94.1-103.3-118.2-112.4-133.3c-47.9-76.7-61.1-172.6-36.3-264.4c44.3-166,158.9-222.6,282.6-270.2l0.3-0.1l0.3-0.1
				c271.9-103.7,535.6-173.2,806.1-212.5c154.6-22.3,291.9-33.2,420-33.2c96.7,0,190.9,6,288,18.4c175,22,301.3,133.8,329.3,291.7
				l0.2,1.1l0.2,1.1c3.6,21.2,8,47.6-6,175.8c-12.9,117.7-22.2,148-28.1,164.8c-33.1,99.7-123.4,163.7-231.5,163.7
				c-6.6,0-13.4-0.2-21.2-0.6l-1-0.1l-1-0.1c-0.7,0-4.8-0.3-14-0.3c-79.5,0-287.2,17.1-484.2,44.8
				c-325.4,46.1-734.4,140.3-818.6,175c-51.6,21.2-70.3,25.6-87.1,28.5l-18.9,3.3L4474.3,1550.9L4474.3,1550.9z"/>
		</g>
		<g>
			<path class="st0" d="M5976.7,257.2c-273.9,0-540.8,25.2-892.5,84.2c-245,41.1-359.1,65.1-554.6,116.7
				c-557.2,146.6-865,315.3-914.7,501.2c-34.6,126.9,38.9,211.6,107,260.3c49.1,35.6,84.5,49.9,140.8,66.5
				c83,24,146.1,34.7,260.8,44.2c43.8,3.5,67.7,5.2,85.8,5.2c67.1,0,100.5-32.1,116.7-58.9c10.3-17.1,30.9-62.7,2-119.1
				c-0.6-1.2-4.6-10-16.3-38.5c-15.9-38.7,4.3-96.8,43.3-124.2c41-28.1,285.1-117,537.8-181.7c96.3-24.8,386.4-73.6,477.8-80.2
				c69.5-5.1,144.6-7.8,217.2-7.8c158.8,0,269.3,12.8,304.8,24.6c53.1,17.8,83.7,65.4,77.9,121.4l-0.8,8.8
				c-4.4,49-4.9,54.1-2.3,69.7c9.6,56,57.4,96,113.7,96c17.9,0,35.9-4,53.4-12c7.9-3.1,29.6-11.4,51.7-19.4
				c141.1-50.8,272.4-115.8,359.9-178.2c95.5-68,152.6-147.3,165.2-229.3c9.5-61.6-5.9-121.2-44.6-172.4
				c-107.3-144.1-417-175.8-657.8-177C5998.3,257.2,5987.5,257.2,5976.7,257.2z"/>
			<path d="M4209.2,1222c22.1,0,22.5-4,17.4-13.6c-3.5-6.9-12.1-27.4-19.9-46.4c-36.2-88.2,0.7-202.5,82.9-260.2
				c61.1-42.6,333.2-136.8,574.8-198.7c102.5-26.4,400-76.3,497.6-83.5c74.7-5.5,152.1-8.1,225.5-8.1c149.4,0,282,10.9,340.7,30.5
				c103.5,34.7,166,131.7,154.8,240.5c-2.2,24.6-4.3,47-4,48.7c0.1,0.6,0.7,0.9,1.8,0.9c1.8,0,4.9-0.9,8.3-2.7
				c4.9-2,31.5-12.2,58.2-21.9c129.2-46.5,253.1-107.2,332.7-163.9c113.6-80.9,149.5-170.2,96-241
				c-60.5-81.2-272.8-130.5-567.9-131.9c-10.5-0.1-21-0.1-31.6-0.1c-269.5,0-532.3,25.3-873.8,82.6
				c-242.9,40.7-351.8,63.7-544.4,114.5c-491.1,129.2-797.5,284.1-834.1,420.9c-15,55.1,4,96.4,63.8,139
				c34.2,24.9,55.5,34.6,106.6,49.8c74.7,21.6,129.5,30.9,237.9,39.9C4170.7,1220.2,4194.7,1222,4209.2,1222 M4209.2,1448.8
				C4209.2,1448.8,4209.2,1448.8,4209.2,1448.8C4209.2,1448.8,4209.2,1448.8,4209.2,1448.8c-22.1,0-47.1-1.7-94.7-5.5l-0.3,0l-0.3,0
				c-123.1-10.2-191.7-21.9-282.2-48l-0.7-0.2l-0.7-0.2c-65.8-19.5-113.2-38.6-174.8-83.2c-184.8-132.3-173.5-296-150.1-382.2
				c36.8-136.7,152.3-250,363.3-356.5c159.7-80.6,372.4-156.2,632-224.5c199.4-52.6,315.6-77,564.6-118.8
				c358.3-60.1,630.8-85.8,911.3-85.8c10.9,0,21.9,0,32.8,0.1c163.6,0.8,305.6,14.9,421.9,41.9c155.4,36.1,262,95.2,326,180.6
				c56.4,75,79.8,166.3,65.8,257.4c-12.1,78.8-58.6,195.5-211.6,304.4c-95.5,68.1-236.7,138.3-387.4,192.6
				c-18.9,6.8-37.6,14-46.2,17.3c-31.4,13.7-64,20.7-97.1,20.7c-112.1,0-206.9-80-225.4-190.1c-5.1-30.3-3.7-46.2,1.1-99l0.7-7.4
				l0.1-1.5l0.2-1.5c0.1-0.7,0.1-1.3,0.1-1.7c-0.2-0.1-0.5-0.2-0.9-0.3c-17.4-5-102.3-18.9-269.2-18.9c-69.9,0-142.1,2.6-208.9,7.5
				c-85.3,6.2-367.5,53.7-457.6,76.9c-239.9,61.5-446.5,137.6-499.8,164.7c4.8,11.5,7.8,18.4,9.1,21.3
				c36.4,73.7,33.9,157.8-7.3,226.2C4397.5,1377.4,4335.7,1448.8,4209.2,1448.8L4209.2,1448.8L4209.2,1448.8z"/>
		</g>
	</g>
</g>
<g>
	<defs>
		<circle id="SVGID_1_" cx="506.7" cy="508.9" r="373.2"/>
	</defs>
	<clipPath id="SVGID_2_">
		<use xlink:href="#SVGID_1_"  style="overflow:visible;"/>
	</clipPath>
	<g class="st1">
		<path class="st0" d="M406.2,903.6c-2,0-3.9-0.3-5.8-1c-4.6-1.5-8.3-4.8-10.4-9.1L330.2,773l-6.8,9.4c-2.2,3-5.7,4.8-9.4,4.8
			c-0.7,0-1.3-0.1-2-0.2c-4.4-0.7-7.9-3.8-9.2-8.1l-8.1-27c-0.7-2.3-2.5-4.2-4.8-4.9l-26.7-8.6c-4.2-1.4-7.3-5-7.9-9.4
			c-0.7-4.4,1.2-8.7,4.9-11.2l23.1-16c2-1.4,3.2-3.7,3.2-6.1l-0.1-28.1c0-4.5,2.5-8.5,6.4-10.4c1.6-0.8,3.4-1.2,5.2-1.2
			c2.5,0,5,0.8,7.1,2.4l22.3,17c1.3,1,2.9,1.5,4.5,1.5c0.8,0,1.6-0.1,2.3-0.4l26.7-8.8c1.1-0.4,2.4-0.6,3.6-0.6
			c3.1,0,6.1,1.3,8.3,3.5c3.1,3.2,4.1,7.8,2.7,12l-9.3,26.5c-0.8,2.3-0.4,4.9,1,6.8l16.6,22.7c2.6,3.5,3,8.3,0.9,12.2
			c-2,3.8-6,6.2-10.3,6.2l-0.3,0l-11.5-0.3l59.8,120.5c2.2,4.3,2.5,9.2,0.9,13.8c-1.5,4.6-4.8,8.3-9.1,10.4
			C411.8,902.9,409,903.6,406.2,903.6C406.2,903.6,406.2,903.6,406.2,903.6z"/>
		<path d="M298,663.2c0.9,0,1.9,0.3,2.6,0.9l22.4,17c2.6,2,5.7,3,8.9,3c1.5,0,3.1-0.2,4.6-0.7l26.7-8.8c0.4-0.1,0.9-0.2,1.3-0.2
			c1.1,0,2.3,0.5,3.1,1.3c1.1,1.2,1.5,2.9,1,4.4l-9.3,26.5c-1.6,4.6-0.9,9.6,2,13.5l16.6,22.7c1,1.3,1.1,3.1,0.3,4.5
			c-0.7,1.4-2.2,2.3-3.8,2.3c0,0-0.1,0-0.1,0l-23.6-0.5l65.2,131.3c2.7,5.4,0.5,11.8-4.9,14.5c-1.5,0.8-3.2,1.1-4.8,1.1
			c-1.2,0-2.4-0.2-3.5-0.6c-2.6-0.9-4.9-2.8-6.2-5.4l-65.2-131.3l-13.9,19.1c-0.8,1.1-2.1,1.8-3.5,1.8c-0.2,0-0.5,0-0.7-0.1
			c-1.6-0.3-2.9-1.4-3.4-3l-8.1-26.9c-1.4-4.6-5-8.3-9.6-9.8l-26.7-8.6c-1.6-0.5-2.7-1.9-3-3.5c-0.2-1.6,0.5-3.2,1.8-4.2l23.1-16
			c4-2.8,6.3-7.3,6.4-12.1l-0.1-28.1c0-1.6,0.9-3.1,2.4-3.9C296.7,663.4,297.3,663.2,298,663.2 M298,648.6L298,648.6L298,648.6
			c-2.9,0-5.8,0.7-8.4,2l0,0l0,0c-6.5,3.2-10.5,9.7-10.5,16.9l0,0l0,0l0.1,28.1c0,0.1,0,0.1-0.1,0.1l-23.1,16l0,0l0,0
			c-5.9,4.1-9,11.1-7.9,18.3c1.1,7.2,6,13,12.9,15.2l26.8,8.6c0,0,0.1,0,0.1,0.1l8.1,26.9l0,0l0,0c2.1,6.9,7.8,11.9,14.9,13.2
			c1,0.2,2.1,0.3,3.2,0.3c5.9,0,11.4-2.8,15-7.4l54.5,109.7c3,6.1,8.2,10.6,14.7,12.8c2.6,0.9,5.4,1.3,8.1,1.3
			c3.9,0,7.8-0.9,11.3-2.7c6.1-3,10.6-8.2,12.8-14.7c2.2-6.4,1.7-13.3-1.3-19.4l-54.5-109.7c7,0,13.4-3.9,16.7-10.1
			c3.3-6.3,2.7-14.2-1.5-19.9l-16.6-22.7c0-0.1,0-0.1,0-0.1l9.3-26.5c2.4-6.8,0.7-14.3-4.3-19.5c-3.5-3.6-8.5-5.7-13.5-5.7
			c-2,0-4,0.3-5.9,1l-26.7,8.7c0,0,0,0,0,0c0,0,0,0-0.1,0l-22.4-17C306.2,650,302.1,648.6,298,648.6L298,648.6z"/>
	</g>
</g>
</svg>
